<svg xmlns="http://www.w3.org/2000/svg" width="23.747" height="19" viewBox="0 0 23.747 19">
  <path id="Icon_awesome-user-cog" data-name="Icon awesome-user-cog" d="M22.655,13.853a4.353,4.353,0,0,0,0-1.581l.957-.553a.269.269,0,0,0,.122-.315A5.569,5.569,0,0,0,22.5,9.274a.271.271,0,0,0-.334-.052l-.957.553a4.357,4.357,0,0,0-1.369-.79V7.878a.27.27,0,0,0-.212-.263,5.6,5.6,0,0,0-2.457,0,.27.27,0,0,0-.212.263V8.984a4.357,4.357,0,0,0-1.369.79l-.957-.553a.271.271,0,0,0-.334.052A5.569,5.569,0,0,0,13.07,11.4a.273.273,0,0,0,.122.315l.957.553a4.353,4.353,0,0,0,0,1.581l-.957.553a.269.269,0,0,0-.122.315,5.6,5.6,0,0,0,1.232,2.13.271.271,0,0,0,.334.052l.957-.553a4.357,4.357,0,0,0,1.369.79v1.106a.27.27,0,0,0,.212.263,5.6,5.6,0,0,0,2.457,0,.27.27,0,0,0,.212-.263V17.141a4.357,4.357,0,0,0,1.369-.79l.957.553a.271.271,0,0,0,.334-.052,5.569,5.569,0,0,0,1.232-2.13.273.273,0,0,0-.122-.315l-.957-.553Zm-4.249,1.009a1.8,1.8,0,1,1,1.8-1.8A1.8,1.8,0,0,1,18.406,14.862ZM8.313,9.5a4.75,4.75,0,1,0-4.75-4.75A4.75,4.75,0,0,0,8.313,9.5Zm7.466,8.405c-.085-.045-.171-.1-.252-.145l-.293.171a1.456,1.456,0,0,1-1.8-.271,6.767,6.767,0,0,1-1.492-2.583,1.452,1.452,0,0,1,.664-1.7l.293-.171q-.006-.145,0-.289l-.293-.171a1.45,1.45,0,0,1-.664-1.7c.033-.108.082-.215.119-.323-.141-.011-.278-.045-.423-.045h-.62a6.46,6.46,0,0,1-5.411,0h-.62A4.989,4.989,0,0,0,0,15.675v1.544A1.782,1.782,0,0,0,1.781,19H14.844a1.779,1.779,0,0,0,1.009-.315,1.445,1.445,0,0,1-.074-.438Z" fill="#b5bbcd"/>
</svg>
