<svg xmlns="http://www.w3.org/2000/svg" width="120" height="132.968" viewBox="0 0 120 132.968"><g transform="translate(-480 -2064)"><circle cx="60" cy="60" r="60" transform="translate(480 2064)" fill="#0672e2" opacity="0.06"/><g transform="translate(496 2105)"><path d="M45.984,266.982H11.5A11.51,11.51,0,0,1,0,255.486v-3.832a38.363,38.363,0,0,1,38.32-38.32,3.832,3.832,0,1,1,0,7.664A30.692,30.692,0,0,0,7.664,251.654v3.832a3.836,3.836,0,0,0,3.832,3.832H45.984a3.832,3.832,0,0,1,0,7.664Z" transform="translate(0 -175.014)" fill="#0672e2"/><path d="M125.826,21.333h0a19.162,19.162,0,0,1,19.16,19.16v7.664a19.162,19.162,0,0,1-19.16,19.16h0a19.162,19.162,0,0,1-19.16-19.16V40.493A19.162,19.162,0,0,1,125.826,21.333Z" transform="translate(-87.506 -17.501)" fill="#fff"/><g transform="translate(15.328)"><path d="M108.325,53.648A23.015,23.015,0,0,1,85.333,30.656V22.992a22.992,22.992,0,1,1,45.984,0v7.664A23.015,23.015,0,0,1,108.325,53.648Zm0-45.984A15.343,15.343,0,0,0,93,22.992v7.664a15.328,15.328,0,1,0,30.656,0V22.992A15.343,15.343,0,0,0,108.325,7.664Z" transform="translate(-85.333)" fill="#0672e2"/><path d="M298.152,370.331h-38.32a3.832,3.832,0,0,1,0-7.664h38.32a3.832,3.832,0,0,1,0,7.664Z" transform="translate(-225.344 -297.523)" fill="#0672e2"/><path d="M366.5,301.984a3.828,3.828,0,0,1-3.832-3.832v-38.32a3.832,3.832,0,0,1,7.664,0v38.32A3.829,3.829,0,0,1,366.5,301.984Z" transform="translate(-312.851 -210.016)" fill="#0672e2"/></g></g></g></svg>