<svg xmlns="http://www.w3.org/2000/svg" width="21.375" height="19" viewBox="0 0 21.375 19">
  <path id="Icon_awesome-mail-bulk" data-name="Icon awesome-mail-bulk" d="M5.938,16.625a4.5,4.5,0,0,1-2.375-1.187C1.188,13.775.475,13.181,0,12.825v4.988A1.188,1.188,0,0,0,1.188,19h9.5a1.188,1.188,0,0,0,1.188-1.187V12.825c-.475.356-1.187.95-3.562,2.613A4.5,4.5,0,0,1,5.938,16.625ZM10.688,9.5h-9.5A1.188,1.188,0,0,0,0,10.688v.594c.95.712.831.712,4.275,3.206.356.237,1.069.95,1.662.95s1.306-.713,1.662-.831c3.444-2.494,3.325-2.494,4.275-3.206v-.712A1.188,1.188,0,0,0,10.688,9.5Zm9.5-3.562H8.313A1.188,1.188,0,0,0,7.125,7.125V8.313h3.563a2.378,2.378,0,0,1,2.364,2.146l.011-.008v4.988h7.125a1.188,1.188,0,0,0,1.188-1.188V7.125A1.188,1.188,0,0,0,20.188,5.938ZM19,10.688H16.625V8.313H19ZM5.938,7.125A2.378,2.378,0,0,1,8.313,4.75h8.313V1.188A1.188,1.188,0,0,0,15.438,0H3.562A1.188,1.188,0,0,0,2.375,1.188V8.313H5.938Z" fill="#b5bbcd"/>
</svg>
