<svg xmlns="http://www.w3.org/2000/svg" width="18.081" height="21.401" viewBox="0 0 18.081 21.401">
  <path id="Icon_awesome-file-code" data-name="Icon awesome-file-code" d="M18.081,5.1V5.35H12.054V0h.285a1.207,1.207,0,0,1,.8.294L17.75,4.388a.95.95,0,0,1,.331.709Zm-6.4,1.591a1.075,1.075,0,0,1-1.13-1V0H1.13A1.072,1.072,0,0,0,0,1V20.4a1.072,1.072,0,0,0,1.13,1H16.951a1.072,1.072,0,0,0,1.13-1V6.688ZM5.8,16.741a.277.277,0,0,1-.359.01L2.388,14.209a.209.209,0,0,1,0-.329l3.054-2.542a.277.277,0,0,1,.359.01l.922.873a.212.212,0,0,1,.068.165.217.217,0,0,1-.086.159l-1.919,1.5,1.919,1.5a.217.217,0,0,1,.086.159.212.212,0,0,1-.068.165Zm2.415,2.11-1.293-.333a.223.223,0,0,1-.173-.28L9.644,9.392a.26.26,0,0,1,.315-.154l1.293.333a.223.223,0,0,1,.173.28L8.532,18.7a.26.26,0,0,1-.315.154Zm7.571-4.642-3.054,2.542a.277.277,0,0,1-.359-.01l-.922-.873a.212.212,0,0,1-.068-.165.217.217,0,0,1,.086-.159l1.919-1.5-1.919-1.5a.217.217,0,0,1-.086-.159.212.212,0,0,1,.068-.165l.922-.873a.277.277,0,0,1,.359-.01l3.054,2.542a.209.209,0,0,1,0,.329Z" fill="#b5bbcd"/>
</svg>
