<svg xmlns="http://www.w3.org/2000/svg" width="779.977" height="678.606" viewBox="0 0 779.977 678.606"><g transform="translate(-1108.277 -236.394)"><g transform="translate(1128.615 185.394)"><ellipse cx="382" cy="29.5" rx="382" ry="29.5" transform="translate(-20.338 670.606)" fill="#021050" opacity="0.49"/><g transform="translate(9.284 464.68)"><ellipse cx="24.353" cy="25.47" rx="24.353" ry="25.47" transform="translate(90.818 30.559)" fill="#fff4af"/><path d="M1333.688,407.911h37.885V238.822a34.674,34.674,0,0,1-5.412-27.445l-7.79-4.349a10.03,10.03,0,0,1-3.858-13.694,10.222,10.222,0,0,1,13.82-3.822l7.79,4.349a35.43,35.43,0,0,1,41.626-5.222,34.811,34.811,0,0,1,12.995,12.649l.471-.828,39.5,2.368-47.825,84.083-22.506-32.258.474-.828a35.194,35.194,0,0,1-17.652-4.461c-.281-.157-.542-.336-.816-.5V407.911h43.293a9.383,9.383,0,1,1,0,18.765h-92a9.383,9.383,0,1,1,0-18.765Z" transform="translate(-1324.219 -184.147)" fill="#0672e2"/></g><g transform="translate(184.322 82.342)" opacity="0.72"><path d="M1461.923,48.548A624.712,624.712,0,0,1,1204.338,182.2c-13.946,3.464-28.5,6.459-42.61,3.71s-27.741-12.617-30.557-26.588c-3.832-19.024,12.863-36.038,29.941-45.53,13.859-7.7,30.953-13.112,45.4-6.567,12.727,5.765,20.042,19.567,22.364,33.242,4.319,25.406-5.531,51.263-19.262,73.144s-31.363,41.148-45.147,62.994c-32.808,52-41.746,118.175-23.89,176.89,16.472,54.164,57.875,102.867,112.877,118.044" transform="translate(-1130.617 -48.548)" fill="none" stroke="#0672e2" stroke-miterlimit="10" stroke-width="0.816" stroke-dasharray="9.792"/></g><g transform="translate(0 51)"><path d="M1084.482,175.243l-11.683-7.8-13.112,5.112,3.88-13.421-8.958-10.776,14.082-.49,7.576-11.772,4.822,13.118,13.641,3.5-11.1,8.6Z" transform="translate(-1054.609 240.202)" fill="#ed3237"/><path d="M1210.066,77.152l-10.852-.486-6.557,8.582-2.887-10.377-10.264-3.526,9.069-5.927.213-10.762,8.492,6.714,10.4-3.125-3.821,10.076Z" transform="translate(-1079.081 141.346)" fill="#002dc7"/><path d="M1306.338,178.312l-10.139-9.7L1282.39,171.4l6.173-12.55-6.936-12.153,13.955,1.939,9.523-10.29,2.451,13.748,12.821,5.794-12.439,6.558Z" transform="translate(-610.245 179.954)" fill="#ed3237"/><path d="M1244.2,47.151l-10.139-9.7-13.808,2.779,6.173-12.55-6.935-12.153,13.954,1.939,9.523-10.291,2.452,13.749,12.82,5.794L1245.8,33.28Z" transform="translate(-712.513 -7.179)" fill="#0672e2"/></g><g transform="translate(369.73 264.714)"><path d="M716.577,147.6a18.5,18.5,0,0,0-2.716-8.868c1.665-.745,2.716-2.586,2.716-5.4,0-4.253-2.378-9.385-5.717-12.966-3.337-.689-5.715,1.4-5.715,5.658a18.5,18.5,0,0,0,2.716,8.868c-1.665.745-2.716,2.586-2.716,5.4a18.5,18.5,0,0,0,2.716,8.868c-1.665.745-2.716,2.586-2.716,5.395a18.487,18.487,0,0,0,2.716,8.868c-1.665.747-2.716,2.588-2.716,5.4a18.487,18.487,0,0,0,2.716,8.868c-1.665.745-2.716,2.586-2.716,5.4a18.5,18.5,0,0,0,2.716,8.868c-1.665.745-2.716,2.586-2.716,5.395a18.48,18.48,0,0,0,2.716,8.868c-1.665.747-2.716,2.588-2.716,5.4a18.488,18.488,0,0,0,2.716,8.868c-1.665.747-2.716,2.586-2.716,5.4,0,4.253,2.378,9.385,5.715,12.966,3.339.689,5.717-1.4,5.717-5.658a18.5,18.5,0,0,0-2.716-8.868c1.665-.745,2.716-2.586,2.716-5.395a18.481,18.481,0,0,0-2.716-8.868c1.665-.747,2.716-2.588,2.716-5.4a18.488,18.488,0,0,0-2.716-8.868c1.665-.747,2.716-2.586,2.716-5.4a18.5,18.5,0,0,0-2.716-8.868c1.665-.745,2.716-2.586,2.716-5.4a18.48,18.48,0,0,0-2.716-8.866c1.665-.747,2.716-2.588,2.716-5.4A18.489,18.489,0,0,0,713.861,153C715.526,152.249,716.577,150.408,716.577,147.6Z" transform="translate(-705.145 -120.239)" fill="#021359"/><path d="M723.91,147.6a18.471,18.471,0,0,0-2.716-8.868c1.667-.745,2.716-2.586,2.716-5.4,0-4.253-2.378-9.385-5.715-12.966-3.339-.689-5.717,1.4-5.717,5.658a18.494,18.494,0,0,0,2.716,8.868c-1.665.745-2.716,2.586-2.716,5.4a18.494,18.494,0,0,0,2.716,8.868c-1.665.745-2.716,2.586-2.716,5.395a18.487,18.487,0,0,0,2.716,8.868c-1.665.747-2.716,2.588-2.716,5.4a18.487,18.487,0,0,0,2.716,8.868c-1.665.745-2.716,2.586-2.716,5.4a18.494,18.494,0,0,0,2.716,8.868c-1.665.745-2.716,2.586-2.716,5.395a18.48,18.48,0,0,0,2.716,8.868c-1.665.747-2.716,2.588-2.716,5.4a18.487,18.487,0,0,0,2.716,8.868c-1.665.747-2.716,2.586-2.716,5.4,0,4.253,2.378,9.385,5.717,12.966,3.337.689,5.715-1.4,5.715-5.658a18.471,18.471,0,0,0-2.716-8.868c1.667-.745,2.716-2.586,2.716-5.395a18.456,18.456,0,0,0-2.716-8.868c1.667-.747,2.716-2.588,2.716-5.4a18.463,18.463,0,0,0-2.716-8.868c1.667-.747,2.716-2.586,2.716-5.4a18.471,18.471,0,0,0-2.716-8.868c1.667-.745,2.716-2.586,2.716-5.4a18.456,18.456,0,0,0-2.716-8.866c1.667-.747,2.716-2.588,2.716-5.4A18.464,18.464,0,0,0,721.194,153C722.862,152.249,723.91,150.408,723.91,147.6Z" transform="translate(-695.979 -120.239)" fill="#021359"/><path d="M731.245,147.6a18.494,18.494,0,0,0-2.716-8.868c1.665-.745,2.716-2.586,2.716-5.4,0-4.253-2.378-9.385-5.717-12.966-3.339-.689-5.717,1.4-5.717,5.658a18.494,18.494,0,0,0,2.716,8.868c-1.665.745-2.716,2.586-2.716,5.4a18.494,18.494,0,0,0,2.716,8.868c-1.665.745-2.716,2.586-2.716,5.395a18.487,18.487,0,0,0,2.716,8.868c-1.665.747-2.716,2.588-2.716,5.4a18.487,18.487,0,0,0,2.716,8.868c-1.665.745-2.716,2.586-2.716,5.4a18.494,18.494,0,0,0,2.716,8.868c-1.665.745-2.716,2.586-2.716,5.395a18.479,18.479,0,0,0,2.716,8.868c-1.665.747-2.716,2.588-2.716,5.4a18.487,18.487,0,0,0,2.716,8.868c-1.665.747-2.716,2.586-2.716,5.4,0,4.253,2.378,9.385,5.717,12.966,3.339.689,5.717-1.4,5.717-5.658a18.494,18.494,0,0,0-2.716-8.868c1.665-.745,2.716-2.586,2.716-5.395a18.479,18.479,0,0,0-2.716-8.868c1.665-.747,2.716-2.588,2.716-5.4a18.486,18.486,0,0,0-2.716-8.868c1.665-.747,2.716-2.586,2.716-5.4a18.494,18.494,0,0,0-2.716-8.868c1.665-.745,2.716-2.586,2.716-5.4a18.478,18.478,0,0,0-2.716-8.866c1.665-.747,2.716-2.588,2.716-5.4A18.487,18.487,0,0,0,728.529,153C730.195,152.249,731.245,150.408,731.245,147.6Z" transform="translate(-686.813 -120.239)" fill="#021359"/></g><path d="M753.605,147.6a18.489,18.489,0,0,0-2.714-8.868c1.665-.745,2.714-2.586,2.714-5.4,0-4.253-2.376-9.385-5.715-12.966-3.339-.689-5.717,1.4-5.717,5.658a18.5,18.5,0,0,0,2.716,8.868c-1.665.745-2.716,2.586-2.716,5.4a18.5,18.5,0,0,0,2.716,8.868c-1.665.745-2.716,2.586-2.716,5.395a18.488,18.488,0,0,0,2.716,8.868c-1.665.747-2.716,2.588-2.716,5.4a18.488,18.488,0,0,0,2.716,8.868c-1.665.745-2.716,2.586-2.716,5.4a18.5,18.5,0,0,0,2.716,8.868c-1.665.745-2.716,2.586-2.716,5.395a18.481,18.481,0,0,0,2.716,8.868c-1.665.747-2.716,2.588-2.716,5.4a18.488,18.488,0,0,0,2.716,8.868c-1.665.747-2.716,2.586-2.716,5.4,0,4.253,2.378,9.385,5.717,12.966,3.339.689,5.715-1.4,5.715-5.658a18.488,18.488,0,0,0-2.714-8.868c1.665-.745,2.714-2.586,2.714-5.395a18.474,18.474,0,0,0-2.714-8.868c1.665-.747,2.714-2.588,2.714-5.4a18.481,18.481,0,0,0-2.714-8.868c1.665-.747,2.714-2.586,2.714-5.4a18.489,18.489,0,0,0-2.714-8.868c1.665-.745,2.714-2.586,2.714-5.4a18.473,18.473,0,0,0-2.714-8.866c1.665-.747,2.714-2.588,2.714-5.4A18.481,18.481,0,0,0,750.891,153C752.557,152.249,753.605,150.408,753.605,147.6Z" transform="translate(-294.15 144.475)" fill="#3b0606"/><path d="M768.272,147.6a18.5,18.5,0,0,0-2.716-8.868c1.665-.745,2.716-2.586,2.716-5.4,0-4.253-2.378-9.385-5.715-12.966-3.339-.689-5.717,1.4-5.717,5.658a18.5,18.5,0,0,0,2.716,8.868c-1.665.745-2.716,2.586-2.716,5.4a18.5,18.5,0,0,0,2.716,8.868c-1.665.745-2.716,2.586-2.716,5.395a18.49,18.49,0,0,0,2.716,8.868c-1.665.747-2.716,2.588-2.716,5.4a18.49,18.49,0,0,0,2.716,8.868c-1.665.745-2.716,2.586-2.716,5.4a18.5,18.5,0,0,0,2.716,8.868c-1.665.745-2.716,2.586-2.716,5.395a18.483,18.483,0,0,0,2.716,8.868c-1.665.747-2.716,2.588-2.716,5.4a18.49,18.49,0,0,0,2.716,8.868c-1.665.747-2.716,2.586-2.716,5.4,0,4.253,2.378,9.385,5.717,12.966,3.337.689,5.715-1.4,5.715-5.658a18.5,18.5,0,0,0-2.716-8.868c1.665-.745,2.716-2.586,2.716-5.395a18.48,18.48,0,0,0-2.716-8.868c1.665-.747,2.716-2.588,2.716-5.4a18.488,18.488,0,0,0-2.716-8.868c1.665-.747,2.716-2.586,2.716-5.4a18.5,18.5,0,0,0-2.716-8.868c1.665-.745,2.716-2.586,2.716-5.4a18.48,18.48,0,0,0-2.716-8.866c1.665-.747,2.716-2.588,2.716-5.4A18.488,18.488,0,0,0,765.556,153C767.221,152.249,768.272,150.408,768.272,147.6Z" transform="translate(-275.817 144.475)" fill="#021359"/><path d="M1203.158,143.2s.193,36.374-6.886,41.8c0,0,13.163,17.966,41.694,16.557,0,0,21.968-1.93,28.106-9.849,0,0-2.206-43.89-1.858-53.215C1264.214,138.488,1211.234,125.028,1203.158,143.2Z" transform="translate(-800.191 169.742)" fill="#c77168"/><path d="M1198.1,164.233c12.109,8.849,25.861,13.806,41.807,9.6a62.287,62.287,0,0,0,20.835-10.236c-.419-10.6-.748-21.079-.6-25.109,0,0-52.98-13.46-61.056,4.707C1199.091,143.2,1199.145,153.684,1198.1,164.233Z" transform="translate(-796.123 169.742)" fill="#b2625a" opacity="0.47" style="mix-blend-mode:multiply;isolation:isolate"/><path d="M1380.481,177.112c-1.239-4.915-53.525-22.063-64.562-25.633-11.763,8.427-25.344,12.08-40.613,10.69-11.347-1.035-22.926-5.42-30.057-13.962l-.535.07s-69.287,21.967-70.67,27.461,38.8,115.334,36.026,144.166-23.557,53.548-19.4,67.276c0,0,34.26,5.123,66.577,7.059l-.1,1.179c33.256,4.119,106.7-6.864,106.7-6.864,4.157-13.729-16.627-38.445-19.4-67.276S1381.867,182.6,1380.481,177.112Z" transform="translate(-849.736 201.618)" fill="#ed3237"/><path d="M1354.23,181.694a175.225,175.225,0,0,1-47.122,26.569c-29.441,11.134-69.648,9.248-97.093-6.529-13-7.472-23.129-17.918-31.653-29.746,10.8,35.051,23.626,78.982,22.019,95.7-2.771,28.835-23.557,53.548-19.4,67.276,0,0,34.259,5.123,66.581,7.059l-.1,1.179c33.256,4.119,106.7-6.864,106.7-6.864,4.157-13.729-16.627-38.445-19.4-67.276C1333.281,253.646,1344.073,215.09,1354.23,181.694Z" transform="translate(-840.047 253.837)" fill="#74d3c5" style="mix-blend-mode:multiply;isolation:isolate"/><path d="M1201.665,147.5l-5.734,2.323s13.292,30.28,38.275,40.809c0,0,31.286-16.6,36.323-37.259l-4.2-3.039S1238.2,167.753,1201.665,147.5Z" transform="translate(-800.952 200.07)" fill="#fff"/><path d="M1237.727,157.232s-103.978,126.5-89.867,153.194,89.8,64.825,109.042,64.825l26.942-19.066s-71.842-58.472-69.274-69.91,59.011-75,59.011-75S1258.32,143.861,1237.727,157.232Z" transform="translate(-910.855 217.581)" fill="#ed3237"/><path d="M1181.985,246.2c2.258-10.079,46.319-60.585,56.779-72.47-29.625,14.662-54.83,38.62-68.557,68.67-10.786,23.6-11.66,47.495-3.91,69.478,23.58,13.314,48.18,23.3,58.02,23.3l26.942-19.066S1179.418,257.636,1181.985,246.2Z" transform="translate(-878.272 257.657)" fill="#74d3c5" style="mix-blend-mode:multiply;isolation:isolate"/><path d="M1324.623,303.262S1159.134,169.8,1130.91,216.827s53.882,132.195,174.471,148.716Z" transform="translate(-958.051 330.245)" fill="#0672e2"/><path d="M1270.49,158.426s103.978,126.5,89.867,153.191-89.8,64.825-109.042,64.825l-26.941-19.066s71.841-58.469,69.274-69.91-59.011-74.994-59.011-74.994S1249.9,145.052,1270.49,158.426Z" transform="translate(-737.655 220.202)" fill="#ed3237"/><path d="M1341.131,279.292c-17.181-30.244-38.588-56.488-66.916-77.167-10.063-7.344-19.865-15.014-29.793-22.536-1.651-1.253-3.318-2.5-4.982-3.749,13.678,15.624,52.1,60.14,54.208,69.536,2.568,11.438-69.274,69.91-69.274,69.91l26.941,19.066c15.817,0,69.761-25.767,96.3-49.77A11.634,11.634,0,0,1,1341.131,279.292Z" transform="translate(-737.655 262.292)" fill="#74d3c5" style="mix-blend-mode:multiply;isolation:isolate"/><path d="M1227.954,303.262s165.489-133.466,193.71-86.435S1367.785,349.022,1247.2,365.544Z" transform="translate(-729.688 330.245)" fill="#0672e2"/><path d="M760.939,147.6a18.493,18.493,0,0,0-2.716-8.868c1.665-.745,2.716-2.586,2.716-5.4,0-4.253-2.378-9.385-5.717-12.966-3.337-.689-5.715,1.4-5.715,5.658a18.472,18.472,0,0,0,2.716,8.868c-1.667.745-2.716,2.586-2.716,5.4a18.472,18.472,0,0,0,2.716,8.868c-1.667.745-2.716,2.586-2.716,5.395a18.464,18.464,0,0,0,2.716,8.868c-1.667.747-2.716,2.588-2.716,5.4a18.464,18.464,0,0,0,2.716,8.868c-1.667.745-2.716,2.586-2.716,5.4a18.471,18.471,0,0,0,2.716,8.868c-1.667.745-2.716,2.586-2.716,5.395a18.457,18.457,0,0,0,2.716,8.868c-1.667.747-2.716,2.588-2.716,5.4a18.465,18.465,0,0,0,2.716,8.868c-1.667.747-2.716,2.586-2.716,5.4,0,4.253,2.378,9.385,5.715,12.966,3.339.689,5.717-1.4,5.717-5.658a18.493,18.493,0,0,0-2.716-8.868c1.665-.745,2.716-2.586,2.716-5.395a18.478,18.478,0,0,0-2.716-8.868c1.665-.747,2.716-2.588,2.716-5.4a18.486,18.486,0,0,0-2.716-8.868c1.665-.747,2.716-2.586,2.716-5.4a18.493,18.493,0,0,0-2.716-8.868c1.665-.745,2.716-2.586,2.716-5.4a18.478,18.478,0,0,0-2.716-8.866c1.665-.747,2.716-2.588,2.716-5.4A18.486,18.486,0,0,0,758.223,153C759.888,152.249,760.939,150.408,760.939,147.6Z" transform="translate(-281.258 145.705)" fill="#031f7e"/><path d="M760.939,147.6a18.493,18.493,0,0,0-2.716-8.868c1.665-.745,2.716-2.586,2.716-5.4,0-4.253-2.378-9.385-5.717-12.966-3.337-.689-5.715,1.4-5.715,5.658a18.472,18.472,0,0,0,2.716,8.868c-1.667.745-2.716,2.586-2.716,5.4a18.472,18.472,0,0,0,2.716,8.868c-1.667.745-2.716,2.586-2.716,5.395a18.464,18.464,0,0,0,2.716,8.868c-1.667.747-2.716,2.588-2.716,5.4a18.464,18.464,0,0,0,2.716,8.868c-1.667.745-2.716,2.586-2.716,5.4a18.471,18.471,0,0,0,2.716,8.868c-1.667.745-2.716,2.586-2.716,5.395a18.457,18.457,0,0,0,2.716,8.868c-1.667.747-2.716,2.588-2.716,5.4a18.465,18.465,0,0,0,2.716,8.868c-1.667.747-2.716,2.586-2.716,5.4,0,4.253,2.378,9.385,5.715,12.966,3.339.689,5.717-1.4,5.717-5.658a18.493,18.493,0,0,0-2.716-8.868c1.665-.745,2.716-2.586,2.716-5.395a18.478,18.478,0,0,0-2.716-8.868c1.665-.747,2.716-2.588,2.716-5.4a18.486,18.486,0,0,0-2.716-8.868c1.665-.747,2.716-2.586,2.716-5.4a18.493,18.493,0,0,0-2.716-8.868c1.665-.745,2.716-2.586,2.716-5.4a18.478,18.478,0,0,0-2.716-8.866c1.665-.747,2.716-2.588,2.716-5.4A18.486,18.486,0,0,0,758.223,153C759.888,152.249,760.939,150.408,760.939,147.6Z" transform="translate(-282.5 144.475)" fill="#021359"/><path d="M1315.086,149.09l-.226-.121c-2.322-31.558-29.9-56.491-63.651-56.491-35.279,0-63.878,27.212-63.878,60.78a57.94,57.94,0,0,0,1.873,14.381c2.845,25.269,15.069,77.643,67.462,87.589C1256.666,255.227,1320.156,245.362,1315.086,149.09Z" transform="translate(-820.088 79.253)" fill="#c77168"/><path d="M1224.672,127.359s-13.852,9.063-26.922-6.475h-4.706l4.706,2.071S1211.865,141.6,1224.672,127.359Z" transform="translate(-807.372 141.625)" fill="#021359"/><path d="M1213.451,127.84s13.852,9.063,26.925-6.475h4.7l-4.7,2.071S1226.259,142.083,1213.451,127.84Z" transform="translate(-761.962 142.68)" fill="#021359"/><g transform="translate(425.048 285.039)" opacity="0.54"><path d="M1206.675,128.745s6.963,7.411,11.241.8C1217.916,129.544,1213.322,138.16,1206.675,128.745Z" transform="translate(-1202.089 -126.153)" fill="#021359"/><path d="M1206.439,127.934s-3.4,3.627,1.306,5.7A7.116,7.116,0,0,1,1206.439,127.934Z" transform="translate(-1205.253 -127.934)" fill="#021359"/><path d="M1212.151,128.015s3.4,3.627-1.306,5.7A7.115,7.115,0,0,0,1212.151,128.015Z" transform="translate(-1192.81 -127.756)" fill="#021359"/></g><path d="M1204.8,135.128s.912,1.556,5.934-.518,10.505-3.113,16.9,1.553a4.2,4.2,0,0,0,3.719-.588s-.933,10.233-12.747,11.108S1204.8,135.128,1204.8,135.128Z" transform="translate(-781.221 167.911)" fill="#021359" opacity="0.85"/><path d="M1206.809,134.309s10.286.767,13.582.192c0,0-.387,4.423-6.789,4.228S1206.809,134.309,1206.809,134.309Z" transform="translate(-776.743 171.102)" fill="#fff"/><path d="M1275.57,113.253c-12.527,0-22.68,11.792-22.68,26.339,0,.962.048,1.911.135,2.847-6.2-6.2-13.818-1.882-16-.412.065-.8.107-1.614.107-2.435,0-14.547-10.153-26.339-22.681-26.339s-22.681,11.792-22.681,26.339,10.153,26.339,22.681,26.339c11.056,0,20.255-9.194,22.261-21.354,8.244-5.752,14.607-1.956,16.53-.5,1.838,12.4,11.124,21.849,22.329,21.849,12.527,0,22.681-11.792,22.681-26.339S1288.1,113.253,1275.57,113.253Zm-61.12,50.841c-11.653,0-21.1-10.971-21.1-24.5s9.447-24.5,21.1-24.5,21.1,10.971,21.1,24.5S1226.1,164.094,1214.451,164.094Zm61.12,0c-11.653,0-21.1-10.971-21.1-24.5s9.447-24.5,21.1-24.5,21.1,10.971,21.1,24.5S1287.224,164.094,1275.57,164.094Z" transform="translate(-810.209 124.869)" fill="#021359"/><path d="M1143.456,221.1s51.5,23.811,63.513,44.223" transform="translate(-917.724 361.667)" fill="none" stroke="#3f2f7c" stroke-miterlimit="10" stroke-width="0.816"/><path d="M1307.32,221.63s-48.064,25.511-60.082,47.623" transform="translate(-686.772 362.836)" fill="none" stroke="#3f2f7c" stroke-miterlimit="10" stroke-width="0.816"/><path d="M770.529,92.967v0h.14v0c43.4.074,64.017,32.752,61.7,70.137,9.372-37.988-7.508-73.156-44.431-82.689a70.223,70.223,0,0,0-17.274-2.071v0l-.07,0-.07,0v0c-49.273.088-73.09,36.727-61.207,86.107C706.225,122.349,727.133,93.041,770.529,92.967Z" transform="translate(-339.019 91.549)" fill="#021359"/><path d="M29.712,6.863A36.734,36.734,0,0,0,2.294,10.177a1.6,1.6,0,0,1-1.284.156h0A1.692,1.692,0,0,1,.827,7.318C9.018,1.478,19.688-1.126,31,.454a1.918,1.918,0,0,1,1.794,2.191q-.315,1.4-.625,2.8A2,2,0,0,1,29.712,6.863Z" transform="matrix(0.914, 0.407, -0.407, 0.914, 392.669, 243.661)" fill="#021359"/><path d="M3.123,6.862A36.754,36.754,0,0,1,30.547,10.17a1.6,1.6,0,0,0,1.284.155h0a1.692,1.692,0,0,0,.184-3.014C23.823,1.474,13.151-1.127,1.835.455A1.917,1.917,0,0,0,.04,2.647q.311,1.4.622,2.8A2,2,0,0,0,3.123,6.862Z" transform="matrix(0.921, -0.391, 0.391, 0.921, 447.066, 256.736)" fill="#021359"/><path d="M756.759,86.714c0,12.421-6.565,30.57-14.662,30.57s-14.662-18.149-14.662-30.57S734,72.3,742.1,72.3,756.759,74.291,756.759,86.714Z" transform="translate(-310.323 89.868)" fill="#021359"/><path d="M752.185,83.835c0,9.943-5.255,24.47-11.735,24.47s-11.735-14.526-11.735-24.47S733.97,72.3,740.45,72.3,752.185,73.894,752.185,83.835Z" transform="translate(-308.675 89.868)" fill="#031f7e"/><path d="M742.7,83.133c3.483,9.925,2.362,26.521-5.294,29.1s-18.954-9.825-22.437-19.75,2.168-13.609,9.826-16.192S739.221,73.207,742.7,83.133Z" transform="translate(-324.936 92.85)" fill="#021359"/><path d="M739.12,82.253c2.909,8.293,1.974,22.158-4.424,24.315s-15.836-8.208-18.744-16.5,1.811-11.372,8.209-13.528S736.211,73.959,739.12,82.253Z" transform="translate(-323.454 93.479)" fill="#031f7e"/><path d="M727.819,86.936c6.5,6.715,11.532,20.689,6.016,25.826s-19.489-.516-25.992-7.231-3.894-12.945,1.623-18.08S721.315,80.219,727.819,86.936Z" transform="translate(-333.963 101.623)" fill="#021359"/><path d="M724.532,86.471c5.253,5.423,9.316,16.712,4.859,20.86s-15.741-.417-20.994-5.84-3.144-10.457,1.31-14.6S719.28,81.045,724.532,86.471Z" transform="translate(-332.301 101.891)" fill="#031f7e"/><path d="M714.12,94.795c7.553,2.359,17.022,10.641,15.083,16.6s-14.544,7.356-22.1,5-8.207-7.975-6.27-13.941S706.565,92.436,714.12,94.795Z" transform="translate(-339.244 112.402)" fill="#021359"/><path d="M712.165,95.458c6.439,2.011,14.934,7.769,13.8,11.251s-11.456,3.363-17.9,1.352-7.427-5.477-6.3-8.957S705.723,93.447,712.165,95.458Z" transform="translate(-337.36 112.605)" fill="#031f7e"/><path d="M6.134.049c5.175-.446,13.022,2.213,13.377,6.3s-6.921,8.054-12.1,8.5S.409,12.062.056,7.975.959.5,6.134.049Z" transform="translate(361.509 242.175) rotate(10)" fill="#021359"/><path d="M707.594,105.163c5.8-.491,14.6,2.5,15,7.08s-7.743,9.008-13.542,9.5-7.857-3.137-8.26-7.715S701.795,105.654,707.594,105.163Z" transform="translate(-341.907 122.092)" fill="#021359"/><path d="M5.056.054C9.227-.3,15.49,1.149,15.7,3.59S9.992,8.537,5.821,8.9.238,7.352.025,4.91.887.415,5.056.054Z" transform="translate(362.377 243.124) rotate(10)" fill="#031f7e"/><path d="M706.888,105.56c4.674-.395,11.7,1.244,11.939,3.98s-6.391,5.531-11.065,5.928-6.261-1.742-6.5-4.477S702.217,105.957,706.888,105.56Z" transform="translate(-341.266 122.578)" fill="#031f7e"/><path d="M742.265,83.133c-3.483,9.925-2.362,26.521,5.3,29.1S766.513,102.41,770,92.484s-2.166-13.609-9.823-16.192S745.748,73.207,742.265,83.133Z" transform="translate(-296.439 92.85)" fill="#021359"/><path d="M758.008,86.936c-6.5,6.715-11.534,20.689-6.016,25.826s19.489-.516,25.993-7.231,3.892-12.945-1.624-18.08S764.511,80.219,758.008,86.936Z" transform="translate(-287.025 102.853)" fill="#021359"/><path d="M770.225,94.795c-7.555,2.359-17.022,10.641-15.085,16.6s14.546,7.356,22.1,5,8.2-7.975,6.268-13.941S777.78,92.436,770.225,94.795Z" transform="translate(-280.263 114.862)" fill="#021359"/><path d="M772.431,105.163c-5.8-.491-14.6,2.5-15,7.08s7.74,9.008,13.539,9.5,7.857-3.137,8.262-7.715S778.23,105.654,772.431,105.163Z" transform="translate(-274.523 125.781)" fill="#021359"/><path d="M10.669.036C6.551-.308.3,1.825.011,5.078S5.5,11.471,9.618,11.816,15.2,9.582,15.491,6.33,14.786.381,10.669.036Z" transform="translate(488.086 245.933) rotate(7)" fill="#021359"/><path d="M743.025,82.253c-2.909,8.293-1.974,22.158,4.425,24.315s15.835-8.208,18.744-16.5-1.808-11.372-8.207-13.528S745.936,73.959,743.025,82.253Z" transform="translate(-294.243 93.479)" fill="#031f7e"/><path d="M757.825,86.471c-5.253,5.423-9.314,16.712-4.859,20.86s15.741-.417,20.994-5.84,3.146-10.457-1.31-14.6S763.079,81.045,757.825,86.471Z" transform="translate(-285.186 103.026)" fill="#031f7e"/><path d="M769.465,95.458c-6.441,2.011-14.937,7.769-13.807,11.251s11.459,3.363,17.9,1.352,7.427-5.477,6.3-8.957S775.907,93.447,769.465,95.458Z" transform="translate(-279.398 115.676)" fill="#031f7e"/><path d="M770.745,105.56c-4.674-.395-11.7,1.244-11.936,3.98s6.391,5.531,11.063,5.928,6.263-1.742,6.5-4.477S775.419,105.957,770.745,105.56Z" transform="translate(-272.739 125.884)" fill="#031f7e"/><path d="M8.484.04C5.165-.236.177.933,0,2.877S4.539,6.8,7.856,7.079,12.3,5.836,12.478,3.893,11.8.318,8.484.04Z" transform="translate(490.28 246.557) rotate(7)" fill="#031f7e"/><path d="M1204.023,131.53c3.358,8.513,2.268,16.893-2.438,18.717s-11.244-3.6-14.6-12.118-2.267-16.893,2.438-18.714S1200.662,123.017,1204.023,131.53Z" transform="translate(-825.201 136.395)" fill="#c77168"/><path d="M1244.008,137.129c-2.29,8.855-8.115,15.026-13.01,13.783s-7-9.431-4.712-18.286,8.115-15.023,13.008-13.78S1246.3,128.274,1244.008,137.129Z" transform="translate(-737.943 135.571)" fill="#c77168"/><g transform="translate(77.152 109.392)"><path d="M1302.089,647.1,1096.831,72.971h682.486L1602.708,651.743Z" transform="translate(-1096.831 -72.971)" fill="none" style="mix-blend-mode:soft-light;isolation:isolate"/><g transform="translate(190.641 393.173)"><g transform="translate(10.676)"><path d="M0,0H301.474V186.851H0Z" transform="translate(0.002 0.001)" fill="#03288a"/><path d="M1433.467,196c-4.619,49.85-23.781,97.69-65.281,129.628-31.218,24.022-69.731,34.383-108.884,33.67-33.466-.607-66.323-7.206-99.495-10.885v34.437h301.475V196Z" transform="translate(-1159.807 -196.002)" fill="#261d56" opacity="0.11" style="mix-blend-mode:multiply;isolation:isolate"/><path d="M1224.946,233.668c0,6.743-5.125,12.211-11.444,12.211s-11.446-5.468-11.446-12.211,5.125-12.214,11.446-12.214S1224.946,226.922,1224.946,233.668Z" transform="translate(-1065.789 -140.116)" fill="#ddd6fe"/></g><path d="M1473.364,274.417h-306.6a10.247,10.247,0,0,1-10.263-10.169h0a10.247,10.247,0,0,1,10.263-10.169h306.6a10.247,10.247,0,0,1,10.263,10.169h0A10.247,10.247,0,0,1,1473.364,274.417Z" transform="translate(-1156.497 -68.481)" fill="#001e71"/></g></g><g transform="translate(614.371 585.407)"><path d="M1305.96,275.322c7.321,14.608,20,24.275,34.418,24.275,22.671,0,41.048-23.872,41.048-53.314,0-1.492-.058-2.962-.151-4.423h-81.8q-.106,1.721-.132,3.464c-8.067,2.473-13.686,8.456-13.414,15.237C1286.256,268.765,1295.081,275.118,1305.96,275.322ZM1294.8,260.213a13.434,13.434,0,0,1,4.631-10.3,65.011,65.011,0,0,0,5.351,22.913C1298.977,270.264,1295.016,265.649,1294.8,260.213Z" transform="translate(-1285.921 -178.152)" fill="#fff"/><path d="M1285.931,260.561c.325,8.2,9.15,14.557,20.029,14.761,7.321,14.608,20,24.275,34.418,24.275,9.537,0,18.31-4.237,25.28-11.326a61.794,61.794,0,0,1-15.269-.971c-10.2-1.93-20.926-5.372-29.428-11.46-11.569-8.286-17.9-20.721-21.465-33.98h-.019q-.106,1.721-.132,3.464C1291.278,247.8,1285.659,253.78,1285.931,260.561Zm8.87-.348a13.434,13.434,0,0,1,4.631-10.3,65.011,65.011,0,0,0,5.351,22.913C1298.977,270.264,1295.016,265.649,1294.8,260.213Z" transform="translate(-1285.921 -178.152)" fill="#ddd6fe" opacity="0.34"/><ellipse cx="41.518" cy="5.029" rx="41.518" ry="5.029" transform="translate(12.758 59.31)" fill="#ddd6fe"/><path d="M1291.92,244.964c0,2.339,15.636,4.234,34.927,4.234s34.931-1.9,34.931-4.234-15.64-4.231-34.931-4.231S1291.92,242.628,1291.92,244.964Z" transform="translate(-1272.571 -180.626)" fill="#031f7e"/><path d="M1311.012,286.809a7.954,7.954,0,0,0,5.129-2.189,12.12,12.12,0,0,0,3.154-4.89,14.353,14.353,0,0,0,.767-5.912,20.1,20.1,0,0,0-1.406-5.711,59.915,59.915,0,0,0-5.4-9.68,60.717,60.717,0,0,1-4.861-8.964,27.387,27.387,0,0,1-2.322-9.348,18.77,18.77,0,0,1,1.8-9.153,14.837,14.837,0,0,1,2.69-3.813,10.04,10.04,0,0,1,3.867-2.515,5.377,5.377,0,0,1,4.4.179,4.476,4.476,0,0,1,2.522,4.017,4.137,4.137,0,0,0,.032-2.783,6.009,6.009,0,0,0-1.645-2.461,6.073,6.073,0,0,0-2.767-1.441,8.724,8.724,0,0,0-3.139-.144,14.721,14.721,0,0,0-9.744,6.813,21.231,21.231,0,0,0-3.277,11.383,28.94,28.94,0,0,0,2.467,11.39,51.926,51.926,0,0,0,5.606,9.718,86.26,86.26,0,0,1,5.812,8.584,20,20,0,0,1,1.787,4.474,11.592,11.592,0,0,1,.187,4.7A9.3,9.3,0,0,1,1311.012,286.809Z" transform="translate(-1252.782 -221.925)" fill="#fff"/><path d="M1309.284,264.851a7.077,7.077,0,0,0,2.916-4.592,12.044,12.044,0,0,0-.29-5.676c-1.145-3.749-3.506-6.564-5.49-9.057-1.019-1.253-1.925-2.419-2.78-3.669s-1.645-2.557-2.4-3.912a70.848,70.848,0,0,1-4-8.91,19.055,19.055,0,0,0-.074,10.453,23.605,23.605,0,0,0,1.938,5.021,27.546,27.546,0,0,0,2.977,4.439c2.155,2.659,4.354,4.845,5.8,7.251a13.689,13.689,0,0,1,1.606,3.995A8.663,8.663,0,0,1,1309.284,264.851Z" transform="translate(-1262.433 -206.31)" fill="#fff"/><path d="M1312.288,247.505a1.624,1.624,0,1,0,1.623-1.608A1.617,1.617,0,0,0,1312.288,247.505Z" transform="translate(-1227.246 -169.286)" fill="#6455bc"/><path d="M1306.244,248.638a1.625,1.625,0,1,0,1.625-1.607A1.619,1.619,0,0,0,1306.244,248.638Z" transform="translate(-1240.696 -166.798)" fill="#6455bc"/><ellipse cx="1.624" cy="1.609" rx="1.624" ry="1.609" transform="translate(42.808 80.635)" fill="#6455bc"/><path d="M1292.521,247.634a1.624,1.624,0,1,0,1.623-1.611A1.617,1.617,0,0,0,1292.521,247.634Z" transform="translate(-1271.234 -169.011)" fill="#6455bc"/><path d="M1309.518,251.915a1.624,1.624,0,1,0,1.622-1.611A1.615,1.615,0,0,0,1309.518,251.915Z" transform="translate(-1233.41 -159.611)" fill="#6455bc"/><path d="M1302.719,253.426a1.624,1.624,0,1,0,1.625-1.611A1.615,1.615,0,0,0,1302.719,253.426Z" transform="translate(-1248.54 -156.293)" fill="#6455bc"/><path d="M1295.291,252.041a1.624,1.624,0,1,0,1.622-1.611A1.614,1.614,0,0,0,1295.291,252.041Z" transform="translate(-1265.07 -159.335)" fill="#6455bc"/><path d="M1306.5,257.077a1.624,1.624,0,1,0,1.626-1.611A1.62,1.62,0,0,0,1306.5,257.077Z" transform="translate(-1240.135 -148.277)" fill="#6455bc"/><ellipse cx="1.624" cy="1.609" rx="1.624" ry="1.609" transform="translate(41.59 106.386)" fill="#6455bc"/></g><g transform="translate(136.293 564.131)"><g transform="translate(79.347 29.515)"><path d="M1137.7,264.725c-6.928,9.731-17.755,13.978-24.183,9.485s-6.025-16.027.9-25.758,28.279-27.736,34.707-23.243S1144.636,254.994,1137.7,264.725Z" transform="translate(-1108.953 -224.503)" fill="#74d3c5"/><line x1="26.003" y2="36.523" transform="translate(4.568 13.185)" fill="none" stroke="#3f2f7c" stroke-miterlimit="10" stroke-width="0.368" opacity="0.39"/></g><g transform="translate(0 41.114)"><path d="M1108.415,264.045c9.65,7.1,21.274,7.785,25.964,1.528s.67-17.088-8.976-24.189-35.608-17.6-40.3-11.338S1098.764,256.947,1108.415,264.045Z" transform="translate(-1084.351 -228.132)" fill="#74d3c5"/><line x2="36.215" y2="26.648" transform="translate(13.814 10.791)" fill="none" stroke="#3f2f7c" stroke-miterlimit="10" stroke-width="0.368" opacity="0.39"/></g><g transform="translate(57.387 2.882)"><path d="M1140.865,271.868c-4.771,15.378-16.872,25.336-27.028,22.246s-14.53-18.069-9.764-33.447,24.545-47.38,34.7-44.29S1145.632,256.487,1140.865,271.868Z" transform="translate(-1102.144 -216.169)" fill="#14b59d"/><line x1="17.896" y2="57.716" transform="translate(11.691 20.228)" fill="none" stroke="#3f2f7c" stroke-miterlimit="10" stroke-width="0.497" opacity="0.39"/></g><g transform="translate(19.815 8.207)"><path d="M1135.883,255.794c7.744,14.138,6.451,29.672-2.89,34.7s-23.19-2.365-30.938-16.506-16.965-50.534-7.625-55.558S1128.135,241.653,1135.883,255.794Z" transform="translate(-1090.495 -217.835)" fill="#14b59d"/><line x2="29.069" y2="53.066" transform="translate(13.43 19.59)" fill="none" stroke="#3f2f7c" stroke-miterlimit="10" stroke-width="0.497" opacity="0.39"/></g><g transform="translate(43.748)"><path d="M1136.4,267.7c0,16.087-8.615,29.129-19.242,29.129s-19.245-13.042-19.245-29.129,9.418-52.436,20.045-52.436S1136.4,251.615,1136.4,267.7Z" transform="translate(-1097.915 -215.267)" fill="#74d3c5"/><line y2="60.378" transform="translate(19.244 21.186)" fill="none" stroke="#3f2f7c" stroke-miterlimit="10" stroke-width="0.497" opacity="0.39"/></g><g transform="translate(14.772 77.989)"><path d="M1097.532,241.422a38.637,38.637,0,0,0-6.425,21.351,39.48,39.48,0,0,0,78.956,0,38.639,38.639,0,0,0-6.425-21.351Z" transform="translate(-1084.089 -235.826)" fill="#ed3237"/><path d="M1169.985,261.523a38.654,38.654,0,0,0-6.38-20.1H1097.5a38.631,38.631,0,0,0-6.377,20.1Z" transform="translate(-1084.056 -235.826)" fill="#6455bc" style="mix-blend-mode:multiply;isolation:isolate"/><path d="M1174.028,251.84h-78.956a6.13,6.13,0,0,1-6.141-6.085h0a6.131,6.131,0,0,1,6.141-6.085h78.956a6.132,6.132,0,0,1,6.141,6.085h0A6.13,6.13,0,0,1,1174.028,251.84Z" transform="translate(-1088.931 -239.671)" fill="#03288a"/></g></g></g></g></svg>