<svg xmlns="http://www.w3.org/2000/svg" width="120" height="132.97" viewBox="0 0 120 132.97"><g transform="translate(-1040 -2064)"><circle cx="60" cy="60" r="60" transform="translate(1040 2064)" fill="#0672e2" opacity="0.06"/><g transform="translate(7.984)"><path d="M88.145,91.977H3.841A3.831,3.831,0,0,1,.009,88.145V38.329a3.835,3.835,0,0,1,1.406-2.966L43.567.875a3.829,3.829,0,0,1,4.855,0L90.575,35.363a3.849,3.849,0,0,1,1.4,2.966V88.145A3.828,3.828,0,0,1,88.145,91.977ZM7.673,84.313h76.64V40.145L45.993,8.792,7.673,40.145Z" transform="translate(1046.009 2104.993)" fill="#0672e2"/><path d="M132.985,112.175V85.351H64.009v26.824" transform="translate(993.505 2040.979)" fill="#fff"/><path d="M64.009,85.351h68.976v26.824L98.5,133.251,64.009,112.175Z" transform="translate(993.505 2040.979)" fill="#fff"/><path d="M81,119.582a3.845,3.845,0,0,1-2-.56L44.511,97.947a3.836,3.836,0,0,1-1.836-3.273V67.85a3.833,3.833,0,0,1,3.832-3.832h68.976a3.831,3.831,0,0,1,3.832,3.832V94.674a3.849,3.849,0,0,1-1.836,3.273L82.991,119.023A3.8,3.8,0,0,1,81,119.582ZM50.339,92.524,81,111.259l30.656-18.735V71.682H50.339Z" transform="translate(1011.007 2061.48)" fill="#0672e2"/><path d="M-2373.87,2143.719V2190.3h76.64v-45.759l-38.376,21.644Z" transform="translate(3427.552 -1)" fill="#fff"/><path d="M88.134,249.507a3.832,3.832,0,0,1-1.947-.533l-84.3-49.816a3.831,3.831,0,1,1,3.9-6.595l84.3,49.816a3.828,3.828,0,0,1-1.954,7.128Z" transform="translate(1046.016 1947.463)" fill="#0672e2"/><path d="M238.5,224.59a3.832,3.832,0,0,1-1.954-7.132L278.7,192.55a3.832,3.832,0,1,1,3.9,6.6l-42.152,24.908A3.807,3.807,0,0,1,238.5,224.59Z" transform="translate(853.501 1947.473)" fill="#0672e2"/></g></g></svg>