<svg xmlns="http://www.w3.org/2000/svg" width="120" height="133.389" viewBox="0 0 120 133.389"><g transform="translate(-760 -2064)"><circle cx="60" cy="60" r="60" transform="translate(760 2064)" fill="#0672e2" opacity="0.06"/><g transform="translate(774 2117)"><path d="M81.06,338.729H15.44a15.44,15.44,0,1,1,0-30.88h7.72a3.86,3.86,0,0,1,0,7.72H15.44a7.72,7.72,0,0,0,0,15.44H81.06a3.86,3.86,0,0,1,0,7.72Z" transform="translate(0 -258.34)" fill="#0672e2"/><path d="M261.211,56.872h0a10.922,10.922,0,0,0-15.44,0L219.677,82.966a16.4,16.4,0,0,0-4.786,11.58v8.646h8.646a16.4,16.4,0,0,0,11.58-4.786l26.094-26.094A10.921,10.921,0,0,0,261.211,56.872Z" transform="translate(-176.291 -49.823)" fill="#fff"/><path d="M205.908,89.465h-8.646a3.859,3.859,0,0,1-3.86-3.86V76.958a20.125,20.125,0,0,1,5.913-14.305l26.1-26.1a14.8,14.8,0,0,1,20.9,0l0,0a14.808,14.808,0,0,1,0,20.894l-26.1,26.1A20.153,20.153,0,0,1,205.908,89.465Zm-4.786-7.72h4.786a12.479,12.479,0,0,0,8.855-3.659L240.853,52a7.058,7.058,0,0,0-9.982-9.982L204.777,68.107a12.463,12.463,0,0,0-3.655,8.851v4.786Z" transform="translate(-158.662 -32.236)" fill="#0672e2"/><path d="M371.249,78.449l6.137-6.137a10.922,10.922,0,0,0,0-15.44h0a10.922,10.922,0,0,0-15.44,0L356.5,62.159" transform="translate(-292.467 -49.822)" fill="#fff"/><g transform="translate(59.481 0)"><path d="M361.674,63.581l-5.458-5.458,6.137-6.137a7.057,7.057,0,0,0-9.982-9.978l-5.481,5.327L341.506,41.8l5.443-5.288a14.778,14.778,0,0,1,20.863,20.937Z" transform="translate(-339.644 -32.226)" fill="#0672e2"/><path d="M350.443,107.3a3.85,3.85,0,0,1-2.729-1.131l-15.44-15.44a3.859,3.859,0,1,1,5.458-5.458l15.44,15.44a3.86,3.86,0,0,1-2.729,6.589Z" transform="translate(-331.141 -74.816)" fill="#0672e2"/></g></g></g></svg>