<svg xmlns="http://www.w3.org/2000/svg" width="120" height="132.19" viewBox="0 0 120 132.19"><g transform="translate(-1320 -2064)"><circle cx="60" cy="60" r="60" transform="translate(1320 2064)" fill="#0672e2" opacity="0.06"/><g transform="translate(1334 2106)"><path d="M195.748,157.644a29.449,29.449,0,0,1,24.014,34.026,29.151,29.151,0,0,1-.936,3.854,26.7,26.7,0,0,0,1.36,19.426h0L206.9,211.181a29.489,29.489,0,1,1-11.306-53.576Z" transform="translate(-132.108 -129.826)" fill="#fff"/><path d="M172.907,202.246a33.367,33.367,0,1,1,5.684-66.237c.062.012.179.039.28.062a33.368,33.368,0,0,1,27.048,38.494,32.6,32.6,0,0,1-1.057,4.363,22.729,22.729,0,0,0,1.166,16.59,3.883,3.883,0,0,1-4.569,5.4l-11.624-3.3A33.209,33.209,0,0,1,172.907,202.246Zm-.074-59a25.616,25.616,0,1,0,14.235,46.928,3.918,3.918,0,0,1,3.217-.505l6.3,1.783a30.483,30.483,0,0,1,.866-14.864,25.269,25.269,0,0,0,.812-3.345A25.6,25.6,0,0,0,177.418,143.7a2.631,2.631,0,0,1-.3-.066l-.155-.039A24.434,24.434,0,0,0,172.834,143.247Z" transform="translate(-114.438 -112.056)" fill="#0672e2"/><path d="M47.282,27.161a31.082,31.082,0,0,0-24.2,39.783A28.016,28.016,0,0,1,21.64,87.186h0L35.432,83.3A31.08,31.08,0,1,0,47.088,27.083Z" transform="translate(-17.753 -22.653)" fill="#fff"/><g transform="translate(0 0)"><path d="M35.1,74.888a34.619,34.619,0,0,1-18.05-5.074L4.94,73.226a3.887,3.887,0,0,1-4.569-5.4A24.035,24.035,0,0,0,1.61,50.393,35.329,35.329,0,0,1,.6,46.232,34.962,34.962,0,0,1,27.683,5.87a3.762,3.762,0,0,1,.921-.3A35.213,35.213,0,0,1,54.856,11.01,34.971,34.971,0,0,1,41.693,74.267,35.417,35.417,0,0,1,35.1,74.888ZM17.679,61.714a3.9,3.9,0,0,1,2.187.676A27.2,27.2,0,1,0,50.481,17.432a27.434,27.434,0,0,0-19.429-4.4,3.664,3.664,0,0,1-.835.257,27.2,27.2,0,0,0-21.97,31.57,27.441,27.441,0,0,0,.789,3.236,31.845,31.845,0,0,1,.808,15.68l6.783-1.911A3.88,3.88,0,0,1,17.679,61.714Z" transform="translate(0 -4.955)" fill="#0672e2"/><path d="M90.411,197.6a3.83,3.83,0,0,1-1.476-.272,4.117,4.117,0,0,1-1.282-.855l-.466-.583a2.365,2.365,0,0,1-.35-.7,2.473,2.473,0,0,1-.233-.7,5.274,5.274,0,0,1-.078-.777,3.868,3.868,0,0,1,.311-1.476,4.485,4.485,0,0,1,.816-1.282,4.068,4.068,0,0,1,5.517,0,4.483,4.483,0,0,1,.816,1.282,3.868,3.868,0,0,1,.311,1.476,5.249,5.249,0,0,1-.078.777,2.467,2.467,0,0,1-.233.7,2.361,2.361,0,0,1-.35.7l-.466.583A3.91,3.91,0,0,1,90.411,197.6Z" transform="translate(-70.984 -156.662)" fill="#0672e2"/><path d="M176.927,197.6a3.83,3.83,0,0,1-1.476-.272,4.117,4.117,0,0,1-1.282-.855l-.466-.583a2.365,2.365,0,0,1-.35-.7,2.473,2.473,0,0,1-.233-.7,5.275,5.275,0,0,1-.078-.777,3.868,3.868,0,0,1,.311-1.476,4.485,4.485,0,0,1,.816-1.282,4.068,4.068,0,0,1,5.517,0,4.482,4.482,0,0,1,.816,1.282,3.868,3.868,0,0,1,.311,1.476,5.25,5.25,0,0,1-.078.777,2.467,2.467,0,0,1-.233.7,2.361,2.361,0,0,1-.35.7l-.466.583A3.91,3.91,0,0,1,176.927,197.6Z" transform="translate(-141.959 -156.662)" fill="#0672e2"/><path d="M263.443,197.38a3.831,3.831,0,0,1-1.476-.272,4.118,4.118,0,0,1-1.282-.855,6.1,6.1,0,0,1-.466-.583,2.364,2.364,0,0,1-.35-.7,2.472,2.472,0,0,1-.233-.7,5.271,5.271,0,0,1-.078-.777,3.919,3.919,0,0,1,1.127-2.72,3.538,3.538,0,0,1,1.282-.855,3.715,3.715,0,0,1,2.253-.233,2.467,2.467,0,0,1,.7.233,5.879,5.879,0,0,1,.7.35,6.726,6.726,0,0,1,.583.505,3.919,3.919,0,0,1,1.127,2.72,4.013,4.013,0,0,1-1.127,2.758,3.059,3.059,0,0,1-.583.466,6.288,6.288,0,0,1-.7.389,4.68,4.68,0,0,1-.7.194A2.785,2.785,0,0,1,263.443,197.38Z" transform="translate(-212.935 -156.441)" fill="#0672e2"/></g></g></g></svg>